<svg xmlns="http://www.w3.org/2000/svg" fill="none" width="300" height="94" viewBox="0 0 300 94"><path d="M120.045 85.079c0-.861.12-1.609.361-2.242.253-.646.576-1.184.969-1.615.405-.43.861-.747 1.368-.95a4.129 4.129 0 0 1 1.596-.323c1.203 0 2.16.393 2.869 1.178.722.785 1.083 1.995 1.083 3.629 0 .101-.006.203-.019.304 0 .101-.006.196-.019.285h-6.897c.038 1.203.336 2.128.893 2.774.557.646 1.444.969 2.66.969.671 0 1.203-.063 1.596-.19s.678-.234.855-.323l.228 1.064c-.177.101-.513.222-1.007.361-.481.14-1.051.209-1.71.209-.861 0-1.596-.127-2.204-.38a3.947 3.947 0 0 1-1.501-1.064 4.203 4.203 0 0 1-.855-1.615 7.673 7.673 0 0 1-.266-2.071Zm6.973-.779c-.025-1.026-.266-1.824-.722-2.394-.456-.57-1.102-.855-1.938-.855-.443 0-.842.089-1.197.266a3.105 3.105 0 0 0-.912.722 3.445 3.445 0 0 0-.608 1.026 4.456 4.456 0 0 0-.247 1.235h5.624Zm11.834 5.396c-.367.127-.836.247-1.406.361-.57.114-1.292.171-2.166.171-.722 0-1.38-.114-1.976-.342a4.489 4.489 0 0 1-1.52-1.026 4.82 4.82 0 0 1-.988-1.615c-.228-.633-.342-1.349-.342-2.147 0-.747.095-1.431.285-2.052a4.816 4.816 0 0 1 .874-1.634c.38-.456.843-.81 1.387-1.064.558-.253 1.191-.38 1.9-.38.646 0 1.204.095 1.672.285.482.177.83.348 1.045.513v-5.282l1.235-.228v14.44Zm-1.235-7.733a3.694 3.694 0 0 0-.437-.285 3.633 3.633 0 0 0-.589-.285 4.22 4.22 0 0 0-.741-.209 3.596 3.596 0 0 0-.836-.095c-.608 0-1.121.108-1.539.323a2.752 2.752 0 0 0-.988.874 3.536 3.536 0 0 0-.551 1.273 6.662 6.662 0 0 0-.171 1.539c0 1.292.323 2.286.969 2.983.646.684 1.501 1.026 2.565 1.026.608 0 1.096-.025 1.463-.076.38-.063.665-.127.855-.19v-6.878Zm12.046 7.695a23.46 23.46 0 0 1-1.482.342c-.62.127-1.38.19-2.28.19-.734 0-1.349-.108-1.843-.323a2.992 2.992 0 0 1-1.197-.912c-.304-.393-.525-.868-.665-1.425a8.363 8.363 0 0 1-.19-1.843v-5.51h1.235v5.111c0 .697.051 1.286.152 1.767.102.481.266.874.494 1.178.228.291.52.507.874.646.368.127.811.19 1.33.19.583 0 1.09-.032 1.52-.095.431-.063.703-.12.817-.171v-8.626h1.235v9.481Zm7.341.551c-.76 0-1.432-.12-2.014-.361a3.913 3.913 0 0 1-1.463-1.026 4.826 4.826 0 0 1-.874-1.615 6.819 6.819 0 0 1-.304-2.09c0-.773.101-1.476.304-2.109a4.868 4.868 0 0 1 .912-1.634 3.88 3.88 0 0 1 1.425-1.045c.557-.253 1.184-.38 1.881-.38.532 0 1.026.044 1.482.133.468.089.829.203 1.083.342l-.323 1.064a4.013 4.013 0 0 0-.855-.304c-.317-.076-.741-.114-1.273-.114-1.09 0-1.919.355-2.489 1.064-.558.697-.836 1.691-.836 2.983 0 .583.063 1.121.19 1.615.126.481.329.9.608 1.254a3.13 3.13 0 0 0 1.102.817c.456.19 1.007.285 1.653.285.532 0 .975-.057 1.33-.171a5.91 5.91 0 0 0 .798-.323l.266 1.064c-.228.127-.589.247-1.083.361-.482.127-.988.19-1.52.19Zm7.77-1.102c.481 0 .899-.013 1.254-.038a10.2 10.2 0 0 0 .931-.133v-3.458a3.422 3.422 0 0 0-.665-.19c-.304-.076-.722-.114-1.254-.114-.304 0-.621.025-.95.076a2.483 2.483 0 0 0-.912.285c-.279.14-.507.336-.684.589-.177.253-.266.589-.266 1.007 0 .367.057.678.171.931.127.253.298.456.513.608.228.152.494.266.798.342.317.063.671.095 1.064.095Zm-.114-9.158c.646 0 1.191.095 1.634.285.456.177.823.43 1.102.76.279.317.481.697.608 1.14.127.443.19.925.19 1.444v6.194a7.27 7.27 0 0 1-.551.133l-.836.133c-.317.05-.671.089-1.064.114-.38.038-.773.057-1.178.057a5.787 5.787 0 0 1-1.444-.171 3.368 3.368 0 0 1-1.14-.532 2.8 2.8 0 0 1-.76-.95c-.177-.393-.266-.868-.266-1.425 0-.532.101-.988.304-1.368.203-.38.488-.69.855-.931a3.719 3.719 0 0 1 1.311-.551 7.532 7.532 0 0 1 1.653-.171c.177 0 .361.013.551.038.203.013.393.038.57.076.19.025.348.057.475.095.139.025.234.05.285.076v-.608c0-.342-.025-.671-.076-.988a2.05 2.05 0 0 0-.342-.874 1.674 1.674 0 0 0-.722-.627c-.304-.165-.709-.247-1.216-.247-.722 0-1.26.05-1.615.152-.355.101-.614.184-.779.247l-.171-1.083c.215-.101.545-.196.988-.285a8.685 8.685 0 0 1 1.634-.133Zm10.636 10.735c.355.152.633.336.836.551.215.228.323.526.323.893 0 .152-.025.31-.076.475a1.094 1.094 0 0 1-.285.475c-.139.14-.329.253-.57.342-.241.089-.551.133-.931.133-.253 0-.513-.025-.779-.076-.266-.038-.456-.089-.57-.152l.152-.817c.139.063.298.108.475.133.177.025.393.038.646.038.519 0 .779-.184.779-.551a.553.553 0 0 0-.266-.494c-.177-.114-.456-.247-.836-.399.051-.152.114-.33.19-.532a7.78 7.78 0 0 1 .285-.551c-1.279-.152-2.255-.678-2.926-1.577-.659-.9-.988-2.052-.988-3.458 0-.773.101-1.476.304-2.109a4.868 4.868 0 0 1 .912-1.634 3.897 3.897 0 0 1 1.425-1.045c.557-.253 1.184-.38 1.881-.38.532 0 1.026.044 1.482.133.469.089.83.203 1.083.342l-.323 1.064a3.974 3.974 0 0 0-.855-.304c-.317-.076-.741-.114-1.273-.114-1.089 0-1.919.355-2.489 1.064-.557.697-.836 1.691-.836 2.983 0 .583.063 1.121.19 1.615.127.481.329.9.608 1.254a3.14 3.14 0 0 0 1.102.817c.456.19 1.007.285 1.653.285.532 0 .975-.057 1.33-.171a5.91 5.91 0 0 0 .798-.323l.266 1.064c-.215.127-.557.247-1.026.361a6.983 6.983 0 0 1-1.482.19 4.631 4.631 0 0 1-.114.247c-.038.089-.07.165-.095.228Zm7.884-1.577c.482 0 .9-.013 1.254-.038.368-.038.678-.082.931-.133v-3.458a3.422 3.422 0 0 0-.665-.19c-.304-.076-.722-.114-1.254-.114-.304 0-.62.025-.95.076a2.483 2.483 0 0 0-.912.285 1.82 1.82 0 0 0-.684.589c-.177.253-.266.589-.266 1.007 0 .367.057.678.171.931.127.253.298.456.513.608.228.152.494.266.798.342a5.48 5.48 0 0 0 1.064.095Zm-.114-9.158c.646 0 1.191.095 1.634.285.456.177.824.43 1.102.76.279.317.482.697.608 1.14.127.443.19.925.19 1.444v6.194a7.15 7.15 0 0 1-.551.133l-.836.133c-.316.05-.671.089-1.064.114-.38.038-.772.057-1.178.057-.519 0-1-.057-1.444-.171a3.386 3.386 0 0 1-1.14-.532 2.812 2.812 0 0 1-.76-.95c-.177-.393-.266-.868-.266-1.425 0-.532.102-.988.304-1.368.203-.38.488-.69.855-.931a3.735 3.735 0 0 1 1.311-.551 7.532 7.532 0 0 1 1.653-.171c.178 0 .361.013.551.038.203.013.393.038.57.076.19.025.349.057.475.095.14.025.235.05.285.076v-.608c0-.342-.025-.671-.076-.988-.05-.33-.164-.62-.342-.874a1.669 1.669 0 0 0-.722-.627c-.304-.165-.709-.247-1.216-.247-.722 0-1.26.05-1.615.152-.354.101-.614.184-.779.247l-.171-1.083c.216-.101.545-.196.988-.285a8.685 8.685 0 0 1 1.634-.133Zm1.52-1.9c-.278 0-.532-.044-.76-.133a10.702 10.702 0 0 1-.665-.285 2.804 2.804 0 0 0-.589-.247 1.329 1.329 0 0 0-.418-.076c-.266 0-.475.089-.627.266a4.11 4.11 0 0 0-.418.589l-.722-.342a4.66 4.66 0 0 1 .247-.494 3.68 3.68 0 0 1 .38-.494c.152-.152.323-.279.513-.38a1.51 1.51 0 0 1 .684-.152c.279 0 .532.044.76.133.228.089.45.184.665.285a4.2 4.2 0 0 0 .589.266c.152.038.292.057.418.057.266 0 .475-.089.627-.266.152-.177.292-.374.418-.589l.722.342a3.182 3.182 0 0 1-.266.494 2.328 2.328 0 0 1-.38.494c-.139.152-.31.279-.513.38-.19.101-.411.152-.665.152Zm13.543 7.049c0 .773-.114 1.476-.342 2.109a4.494 4.494 0 0 1-.931 1.615 4.242 4.242 0 0 1-1.406 1.045 4.413 4.413 0 0 1-1.805.361 4.42 4.42 0 0 1-1.805-.361 4.477 4.477 0 0 1-1.425-1.045 4.927 4.927 0 0 1-.931-1.615c-.215-.633-.323-1.336-.323-2.109 0-.773.108-1.476.323-2.109a4.927 4.927 0 0 1 .931-1.615 4.126 4.126 0 0 1 1.425-1.045 4.231 4.231 0 0 1 1.805-.38 4.23 4.23 0 0 1 1.805.38c.545.24 1.014.589 1.406 1.045.406.443.716.982.931 1.615.228.633.342 1.336.342 2.109Zm-1.311 0c0-1.229-.285-2.204-.855-2.926-.57-.735-1.342-1.102-2.318-1.102-.975 0-1.748.367-2.318 1.102-.57.722-.855 1.697-.855 2.926s.285 2.204.855 2.926c.57.722 1.343 1.083 2.318 1.083.976 0 1.748-.361 2.318-1.083.57-.722.855-1.697.855-2.926Zm11.924-9.842c.532 0 .963.044 1.292.133.342.076.564.146.665.209l-.247 1.064a3.449 3.449 0 0 0-.627-.19c-.266-.076-.608-.114-1.026-.114-.874 0-1.501.222-1.881.665-.367.443-.551 1.153-.551 2.128v1.026h3.952v1.045h-3.952V90h-1.235V79.113c0-1.28.291-2.242.874-2.888.595-.646 1.507-.969 2.736-.969ZM213.511 90h-1.235v-9.823h1.235V90Zm.285-12.787c0 .291-.089.526-.266.703a.915.915 0 0 1-.646.247.915.915 0 0 1-.646-.247c-.177-.177-.266-.412-.266-.703s.089-.52.266-.684a.88.88 0 0 1 .646-.266.88.88 0 0 1 .646.266c.177.165.266.393.266.684Zm2.988 3.306a24.24 24.24 0 0 1 1.482-.342c.621-.127 1.381-.19 2.28-.19.748 0 1.368.108 1.862.323.507.215.906.526 1.197.931.304.393.52.868.646 1.425.127.557.19 1.172.19 1.843V90h-1.235v-5.092c0-.697-.05-1.286-.152-1.767-.088-.481-.247-.874-.475-1.178a1.73 1.73 0 0 0-.874-.646c-.354-.14-.804-.209-1.349-.209-.582 0-1.089.032-1.52.095-.418.063-.69.12-.817.171V90h-1.235v-9.481Zm13.915 8.588c.481 0 .899-.013 1.254-.038.367-.038.677-.082.931-.133v-3.458a3.444 3.444 0 0 0-.665-.19c-.304-.076-.722-.114-1.254-.114-.304 0-.621.025-.95.076a2.47 2.47 0 0 0-.912.285c-.279.14-.507.336-.684.589-.178.253-.266.589-.266 1.007 0 .367.057.678.171.931a1.6 1.6 0 0 0 .513.608c.228.152.494.266.798.342.316.063.671.095 1.064.095Zm-.114-9.158c.646 0 1.19.095 1.634.285.456.177.823.43 1.102.76.278.317.481.697.608 1.14.126.443.19.925.19 1.444v6.194a7.393 7.393 0 0 1-.551.133l-.836.133c-.317.05-.672.089-1.064.114-.38.038-.773.057-1.178.057-.52 0-1.001-.057-1.444-.171a3.368 3.368 0 0 1-1.14-.532 2.8 2.8 0 0 1-.76-.95c-.178-.393-.266-.868-.266-1.425 0-.532.101-.988.304-1.368a2.5 2.5 0 0 1 .855-.931 3.719 3.719 0 0 1 1.311-.551 7.519 7.519 0 0 1 1.653-.171c.177 0 .361.013.551.038.202.013.392.038.57.076.19.025.348.057.475.095.139.025.234.05.285.076v-.608a6.33 6.33 0 0 0-.076-.988 2.05 2.05 0 0 0-.342-.874 1.68 1.68 0 0 0-.722-.627c-.304-.165-.71-.247-1.216-.247-.722 0-1.261.05-1.615.152a10.03 10.03 0 0 0-.779.247l-.171-1.083c.215-.101.544-.196.988-.285.456-.089 1-.133 1.634-.133Zm6.684.57a23.46 23.46 0 0 1 1.482-.342c.62-.127 1.38-.19 2.28-.19.747 0 1.368.108 1.862.323.506.215.905.526 1.197.931.304.393.519.868.646 1.425.126.557.19 1.172.19 1.843V90h-1.235v-5.092c0-.697-.051-1.286-.152-1.767-.089-.481-.247-.874-.475-1.178a1.738 1.738 0 0 0-.874-.646c-.355-.14-.805-.209-1.349-.209-.583 0-1.09.032-1.52.095-.418.063-.691.12-.817.171V90h-1.235v-9.481Zm14.883 9.69c-.76 0-1.431-.12-2.014-.361a3.921 3.921 0 0 1-1.463-1.026 4.843 4.843 0 0 1-.874-1.615 6.819 6.819 0 0 1-.304-2.09c0-.773.101-1.476.304-2.109a4.868 4.868 0 0 1 .912-1.634 3.897 3.897 0 0 1 1.425-1.045c.557-.253 1.184-.38 1.881-.38.532 0 1.026.044 1.482.133.469.089.83.203 1.083.342l-.323 1.064a3.974 3.974 0 0 0-.855-.304c-.317-.076-.741-.114-1.273-.114-1.089 0-1.919.355-2.489 1.064-.557.697-.836 1.691-.836 2.983 0 .583.063 1.121.19 1.615.127.481.329.9.608 1.254a3.14 3.14 0 0 0 1.102.817c.456.19 1.007.285 1.653.285.532 0 .975-.057 1.33-.171a5.91 5.91 0 0 0 .798-.323l.266 1.064c-.228.127-.589.247-1.083.361-.481.127-.988.19-1.52.19Zm4.084-5.13c0-.861.121-1.609.361-2.242.254-.646.577-1.184.969-1.615.406-.43.862-.747 1.368-.95a4.136 4.136 0 0 1 1.596-.323c1.204 0 2.16.393 2.869 1.178.722.785 1.083 1.995 1.083 3.629 0 .101-.006.203-.019.304 0 .101-.006.196-.019.285h-6.897c.038 1.203.336 2.128.893 2.774.558.646 1.444.969 2.66.969.672 0 1.204-.063 1.596-.19.393-.127.678-.234.855-.323l.228 1.064c-.177.101-.513.222-1.007.361-.481.14-1.051.209-1.71.209-.861 0-1.596-.127-2.204-.38a3.947 3.947 0 0 1-1.501-1.064 4.23 4.23 0 0 1-.855-1.615 7.673 7.673 0 0 1-.266-2.071Zm6.973-.779c-.025-1.026-.266-1.824-.722-2.394-.456-.57-1.102-.855-1.938-.855-.443 0-.842.089-1.197.266a3.105 3.105 0 0 0-.912.722 3.445 3.445 0 0 0-.608 1.026 4.493 4.493 0 0 0-.247 1.235h5.624Zm5.261 5.7h-1.235v-9.823h1.235V90Zm.285-12.787c0 .291-.089.526-.266.703a.916.916 0 0 1-.646.247.913.913 0 0 1-.646-.247c-.178-.177-.266-.412-.266-.703s.088-.52.266-.684a.878.878 0 0 1 .646-.266c.253 0 .468.089.646.266.177.165.266.393.266.684Zm6.332 2.774c.406 0 .786.032 1.14.095.368.063.621.127.76.19l-.247 1.064c-.101-.05-.31-.101-.627-.152-.304-.063-.709-.095-1.216-.095-.532 0-.962.038-1.292.114-.316.076-.525.14-.627.19V90h-1.235v-9.367c.317-.14.754-.279 1.311-.418.558-.152 1.235-.228 2.033-.228Zm6.86 9.12c.481 0 .899-.013 1.254-.038.367-.038.677-.082.931-.133v-3.458a3.444 3.444 0 0 0-.665-.19c-.304-.076-.722-.114-1.254-.114-.304 0-.621.025-.95.076a2.47 2.47 0 0 0-.912.285c-.279.14-.507.336-.684.589-.178.253-.266.589-.266 1.007 0 .367.057.678.171.931a1.6 1.6 0 0 0 .513.608c.228.152.494.266.798.342.316.063.671.095 1.064.095Zm-.114-9.158c.646 0 1.19.095 1.634.285.456.177.823.43 1.102.76.278.317.481.697.608 1.14.126.443.19.925.19 1.444v6.194a7.393 7.393 0 0 1-.551.133l-.836.133c-.317.05-.672.089-1.064.114-.38.038-.773.057-1.178.057-.52 0-1.001-.057-1.444-.171a3.368 3.368 0 0 1-1.14-.532 2.8 2.8 0 0 1-.76-.95c-.178-.393-.266-.868-.266-1.425 0-.532.101-.988.304-1.368a2.5 2.5 0 0 1 .855-.931 3.719 3.719 0 0 1 1.311-.551 7.519 7.519 0 0 1 1.653-.171c.177 0 .361.013.551.038.202.013.392.038.57.076.19.025.348.057.475.095.139.025.234.05.285.076v-.608a6.33 6.33 0 0 0-.076-.988 2.05 2.05 0 0 0-.342-.874 1.68 1.68 0 0 0-.722-.627c-.304-.165-.71-.247-1.216-.247-.722 0-1.261.05-1.615.152a10.03 10.03 0 0 0-.779.247l-.171-1.083c.215-.101.544-.196.988-.285.456-.089 1-.133 1.634-.133Zm-157.67-32.178c0 3.51.834 6.275 2.501 8.294 1.668 1.975 3.972 2.962 6.912 2.962 1.273 0 2.348-.044 3.226-.131a27.782 27.782 0 0 0 2.238-.395V38.75c-.702-.482-1.645-.92-2.83-1.316-1.141-.439-2.37-.658-3.687-.658-2.896 0-5.025.987-6.385 2.962-1.317 1.975-1.975 4.652-1.975 8.032Zm22.843 16.26c-1.58.482-3.577.921-5.991 1.316-2.37.395-4.871.592-7.504.592-2.721 0-5.157-.416-7.307-1.25-2.151-.834-3.994-2.02-5.53-3.555-1.492-1.58-2.655-3.467-3.489-5.661-.79-2.239-1.185-4.74-1.185-7.505 0-2.721.329-5.179.987-7.373.703-2.238 1.712-4.147 3.029-5.727a13.02 13.02 0 0 1 4.805-3.62c1.887-.878 4.06-1.317 6.517-1.317 1.668 0 3.138.197 4.411.592 1.273.395 2.37.834 3.291 1.317V15.317L147.006 14v50.03Zm18.149 1.053h-7.965v-34.43h7.965v34.43Zm.856-44.501c0 1.492-.483 2.677-1.448 3.555-.966.877-2.107 1.316-3.424 1.316-1.36 0-2.523-.439-3.488-1.316-.966-.878-1.449-2.063-1.449-3.555 0-1.536.483-2.743 1.449-3.62.965-.878 2.128-1.317 3.488-1.317 1.317 0 2.458.439 3.424 1.316.965.878 1.448 2.085 1.448 3.62Zm9.306 11.191c1.536-.439 3.533-.856 5.99-1.25 2.458-.396 5.179-.593 8.163-.593 2.809 0 5.157.395 7.044 1.185 1.887.746 3.379 1.82 4.476 3.225 1.141 1.36 1.931 3.029 2.37 5.003.483 1.931.724 4.06.724 6.386v19.354h-7.965V46.98c0-1.844-.132-3.402-.395-4.674-.219-1.317-.614-2.37-1.185-3.16-.526-.834-1.273-1.426-2.238-1.777-.922-.395-2.063-.593-3.423-.593-1.01 0-2.063.066-3.16.197a59.536 59.536 0 0 0-2.436.33v27.78h-7.965v-33.31Zm44.761 15.996c0 3.511.834 6.276 2.502 8.295 1.668 1.975 3.972 2.962 6.912 2.962 1.273 0 2.348-.044 3.226-.131a27.945 27.945 0 0 0 2.238-.395V38.75c-.702-.482-1.646-.92-2.831-1.316-1.141-.439-2.37-.658-3.686-.658-2.897 0-5.025.987-6.386 2.962-1.316 1.975-1.975 4.652-1.975 8.032Zm22.843 16.26c-1.58.483-3.576.922-5.99 1.317-2.37.395-4.872.592-7.505.592-2.721 0-5.156-.416-7.307-1.25-2.15-.834-3.994-2.02-5.53-3.555-1.492-1.58-2.655-3.467-3.488-5.661-.79-2.239-1.185-4.74-1.185-7.505 0-2.721.329-5.179.987-7.373.702-2.238 1.712-4.147 3.028-5.727a13.031 13.031 0 0 1 4.806-3.62c1.887-.878 4.059-1.317 6.517-1.317 1.668 0 3.138.197 4.41.592 1.273.395 2.37.834 3.292 1.317V15.317L242.921 14v50.03Zm18.15 1.054h-7.966v-34.43h7.966v34.43Zm.855-44.501c0 1.492-.482 2.677-1.448 3.555-.965.877-2.106 1.316-3.423 1.316-1.36 0-2.523-.439-3.489-1.316-.965-.878-1.448-2.063-1.448-3.555 0-1.536.483-2.743 1.448-3.62.966-.878 2.129-1.317 3.489-1.317 1.317 0 2.458.439 3.423 1.316.966.878 1.448 2.085 1.448 3.62Zm9.307 11.191c1.536-.439 3.532-.856 5.99-1.25 2.458-.396 5.179-.593 8.163-.593 2.809 0 5.157.395 7.044 1.185 1.887.746 3.379 1.82 4.476 3.225 1.141 1.36 1.931 3.029 2.37 5.003.483 1.931.724 4.06.724 6.386v19.354h-7.965V46.98c0-1.844-.132-3.402-.395-4.674-.22-1.317-.615-2.37-1.185-3.16-.527-.834-1.273-1.426-2.238-1.777-.922-.395-2.063-.593-3.424-.593-1.009 0-2.062.066-3.159.197a59.288 59.288 0 0 0-2.436.33v27.78h-7.965v-33.31Z" fill="#fff"/><path d="M93 93V46.5C93 20.819 72.181 0 46.5 0S0 20.819 0 46.5 20.819 93 46.5 93H93Zm-46.5-8.585c20.94 0 37.915-16.975 37.915-37.915 0-20.94-16.975-37.915-37.915-37.915C25.56 8.585 8.585 25.56 8.585 46.5c0 20.94 16.975 37.915 37.915 37.915Z" fill="#fff" fill-rule="evenodd" clip-rule="evenodd"/><path d="M43.01 63.798c-2.854-.235-5.181-.665-6.98-1.29-1.76-.665-3.07-1.213-3.93-1.643l2.522-6.746c1.368.665 2.992 1.27 4.869 1.818 1.916.548 3.93.822 6.042.822 2.385 0 4.008-.313 4.869-.939.9-.665 1.349-1.584 1.349-2.757 0-.743-.176-1.369-.528-1.877-.352-.548-.86-1.037-1.525-1.467-.665-.43-1.506-.84-2.523-1.232a62.6 62.6 0 0 0-3.52-1.349 64.566 64.566 0 0 1-3.812-1.525 17.271 17.271 0 0 1-3.344-2.112 10.018 10.018 0 0 1-2.405-2.992c-.587-1.212-.88-2.659-.88-4.34 0-1.291.176-2.523.528-3.696a10.248 10.248 0 0 1 1.76-3.285c.782-.978 1.799-1.8 3.05-2.464 1.252-.704 2.738-1.212 4.458-1.525v-6.336h7.392v6.101c2.033.196 3.774.489 5.22.88 1.487.391 2.66.782 3.52 1.173l-1.818 7.04c-1.29-.548-2.796-1.017-4.517-1.408a23.514 23.514 0 0 0-5.338-.587c-1.877 0-3.227.313-4.048.939-.821.625-1.232 1.447-1.232 2.464 0 .625.117 1.173.352 1.642.274.43.684.821 1.232 1.173a15.4 15.4 0 0 0 1.994 1.056c.822.313 1.8.665 2.933 1.056a41.342 41.342 0 0 1 4.752 2.053c1.486.743 2.757 1.604 3.813 2.581a9.582 9.582 0 0 1 2.523 3.344c.625 1.29.938 2.796.938 4.517a12.2 12.2 0 0 1-.528 3.52c-.352 1.134-.938 2.19-1.76 3.167-.82.978-1.896 1.819-3.226 2.523-1.29.704-2.894 1.212-4.81 1.525v7.157H43.01v-6.981Z" fill="#fff"/></svg>