<svg xmlns="http://www.w3.org/2000/svg" width="239" height="65" viewBox="0 0 239 65"><path d="M88.632 48.272c0 2.987.71 5.339 2.128 7.056 1.419 1.68 3.379 2.52 5.88 2.52a28.24 28.24 0 0 0 2.744-.112 23.677 23.677 0 0 0 1.904-.336V40.6c-.597-.41-1.4-.784-2.408-1.12a8.662 8.662 0 0 0-3.136-.56c-2.464 0-4.275.84-5.432 2.52-1.12 1.68-1.68 3.957-1.68 6.832Zm19.432 13.832c-1.344.41-3.043.784-5.096 1.12a38.816 38.816 0 0 1-6.384.504c-2.315 0-4.387-.355-6.216-1.064-1.83-.71-3.397-1.717-4.704-3.024-1.27-1.344-2.259-2.95-2.968-4.816-.672-1.904-1.008-4.032-1.008-6.384 0-2.315.28-4.405.84-6.272.597-1.904 1.456-3.528 2.576-4.872a11.08 11.08 0 0 1 4.088-3.08c1.605-.747 3.453-1.12 5.544-1.12 1.419 0 2.67.168 3.752.504 1.083.336 2.016.71 2.8 1.12V20.664l6.776-1.12v42.56Zm15.439.896h-6.776V33.712h6.776V63Zm.728-37.856c0 1.27-.41 2.277-1.232 3.024-.821.747-1.792 1.12-2.912 1.12-1.157 0-2.146-.373-2.968-1.12-.821-.747-1.232-1.755-1.232-3.024 0-1.307.411-2.333 1.232-3.08.822-.747 1.811-1.12 2.968-1.12 1.12 0 2.091.373 2.912 1.12.822.747 1.232 1.773 1.232 3.08Zm7.917 9.52c1.307-.373 3.005-.728 5.096-1.064 2.091-.336 4.405-.504 6.944-.504 2.389 0 4.387.336 5.992 1.008 1.605.635 2.875 1.55 3.808 2.744.971 1.157 1.643 2.576 2.016 4.256.411 1.643.616 3.453.616 5.432V63h-6.776V47.6c0-1.568-.112-2.893-.336-3.976-.187-1.12-.523-2.016-1.008-2.688-.448-.71-1.083-1.213-1.904-1.512-.784-.336-1.755-.504-2.912-.504-.859 0-1.755.056-2.688.168-.933.112-1.624.205-2.072.28V63h-6.776V34.664Zm38.078 13.608c0 2.987.709 5.339 2.128 7.056 1.418 1.68 3.378 2.52 5.88 2.52a28.16 28.16 0 0 0 2.744-.112 23.758 23.758 0 0 0 1.904-.336V40.6c-.598-.41-1.4-.784-2.408-1.12a8.663 8.663 0 0 0-3.136-.56c-2.464 0-4.275.84-5.432 2.52-1.12 1.68-1.68 3.957-1.68 6.832Zm19.432 13.832c-1.344.41-3.043.784-5.096 1.12a38.816 38.816 0 0 1-6.384.504c-2.315 0-4.387-.355-6.216-1.064-1.83-.71-3.398-1.717-4.704-3.024-1.27-1.344-2.259-2.95-2.968-4.816-.672-1.904-1.008-4.032-1.008-6.384 0-2.315.28-4.405.84-6.272.597-1.904 1.456-3.528 2.576-4.872a11.074 11.074 0 0 1 4.088-3.08c1.605-.747 3.453-1.12 5.544-1.12 1.418 0 2.669.168 3.752.504 1.082.336 2.016.71 2.8 1.12V20.664l6.776-1.12v42.56Zm15.439.896h-6.776V33.712h6.776V63Zm.728-37.856c0 1.27-.411 2.277-1.232 3.024-.821.747-1.792 1.12-2.912 1.12-1.157 0-2.147-.373-2.968-1.12-.821-.747-1.232-1.755-1.232-3.024 0-1.307.411-2.333 1.232-3.08.821-.747 1.811-1.12 2.968-1.12 1.12 0 2.091.373 2.912 1.12.821.747 1.232 1.773 1.232 3.08Zm7.917 9.52c1.306-.373 3.005-.728 5.096-1.064 2.09-.336 4.405-.504 6.944-.504 2.389 0 4.386.336 5.992 1.008 1.605.635 2.874 1.55 3.808 2.744.97 1.157 1.642 2.576 2.016 4.256.41 1.643.616 3.453.616 5.432V63h-6.776V47.6c0-1.568-.112-2.893-.336-3.976-.187-1.12-.523-2.016-1.008-2.688-.448-.71-1.083-1.213-1.904-1.512-.784-.336-1.755-.504-2.912-.504-.859 0-1.755.056-2.688.168-.934.112-1.624.205-2.072.28V63h-6.776V34.664Z" fill="#fff"/><path d="M65 65V32.5C65 14.55 50.45 0 32.5 0S0 14.55 0 32.5 14.55 65 32.5 65H65Zm-32.5-6C47.136 59 59 47.136 59 32.5S47.136 6 32.5 6 6 17.864 6 32.5 17.864 59 32.5 59Z" fill="#fff" fill-rule="evenodd" clip-rule="evenodd"/><path d="M30.061 44.59c-1.995-.164-3.622-.465-4.879-.902-1.23-.465-2.146-.847-2.747-1.148l1.763-4.715c.957.465 2.091.888 3.403 1.271a15.29 15.29 0 0 0 4.223.574c1.667 0 2.802-.219 3.403-.656.629-.465.943-1.107.943-1.927 0-.52-.123-.957-.369-1.312-.246-.383-.601-.724-1.066-1.025-.465-.3-1.052-.588-1.763-.861-.71-.3-1.53-.615-2.46-.943a45.085 45.085 0 0 1-2.665-1.066 12.074 12.074 0 0 1-2.337-1.476 7.001 7.001 0 0 1-1.681-2.091c-.41-.847-.615-1.859-.615-3.034 0-.902.123-1.763.369-2.583a7.161 7.161 0 0 1 1.23-2.296c.547-.683 1.257-1.257 2.132-1.722.875-.492 1.913-.847 3.116-1.066v-4.428h5.166v4.264c1.421.137 2.638.342 3.649.615 1.039.273 1.859.547 2.46.82l-1.271 4.92c-.902-.383-1.954-.71-3.157-.984a16.432 16.432 0 0 0-3.731-.41c-1.312 0-2.255.219-2.829.656-.574.437-.861 1.011-.861 1.722 0 .437.082.82.246 1.148.191.3.478.574.861.82s.847.492 1.394.738a69.28 69.28 0 0 0 2.05.738c1.203.437 2.31.916 3.321 1.435 1.039.52 1.927 1.12 2.665 1.804a6.696 6.696 0 0 1 1.763 2.337c.437.902.656 1.954.656 3.157 0 .82-.123 1.64-.369 2.46a6.353 6.353 0 0 1-1.23 2.214c-.574.683-1.326 1.271-2.255 1.763-.902.492-2.023.847-3.362 1.066v5.002h-5.166V44.59Z" fill="#fff"/></svg>