<svg xmlns="http://www.w3.org/2000/svg" viewBox="0 0 500 500">
<path fill-rule="evenodd" clip-rule="evenodd" d="M500 500V250C500 111.929 388.071 0 250 0C111.929 0 0 111.929 0 250C0 388.071 111.929 500 250 500H500ZM250 453.846C362.581 453.846 453.846 362.581 453.846 250C453.846 137.419 362.581 46.1538 250 46.1538C137.419 46.1538 46.1538 137.419 46.1538 250C46.1538 362.581 137.419 453.846 250 453.846Z" fill="#2E948A" />
<path d="M231.238 343C215.89 341.738 203.379 339.426 193.708 336.062C184.246 332.487 177.203 329.544 172.577 327.231L186.138 290.962C193.497 294.536 202.223 297.795 212.315 300.738C222.618 303.682 233.446 305.154 244.8 305.154C257.626 305.154 266.351 303.472 270.977 300.108C275.813 296.533 278.231 291.592 278.231 285.285C278.231 281.29 277.285 277.926 275.392 275.192C273.5 272.249 270.767 269.621 267.192 267.308C263.618 264.995 259.097 262.787 253.631 260.685C248.164 258.372 241.856 255.954 234.708 253.431C227.769 250.908 220.936 248.174 214.208 245.231C207.69 242.077 201.697 238.292 196.231 233.877C190.974 229.462 186.664 224.1 183.3 217.792C180.146 211.274 178.569 203.495 178.569 194.454C178.569 187.515 179.515 180.892 181.408 174.585C183.51 168.067 186.664 162.179 190.869 156.923C195.074 151.667 200.541 147.251 207.269 143.677C213.997 139.892 221.987 137.159 231.238 135.477V101.415H270.977V134.215C281.91 135.267 291.267 136.844 299.046 138.946C307.036 141.049 313.344 143.151 317.969 145.254L308.192 183.1C301.254 180.156 293.159 177.633 283.908 175.531C274.867 173.428 265.3 172.377 255.208 172.377C245.115 172.377 237.862 174.059 233.446 177.423C229.031 180.787 226.823 185.203 226.823 190.669C226.823 194.033 227.454 196.977 228.715 199.5C230.187 201.813 232.395 203.915 235.338 205.808C238.282 207.7 241.856 209.592 246.062 211.485C250.477 213.167 255.733 215.059 261.831 217.162C271.082 220.526 279.597 224.205 287.377 228.2C295.367 232.195 302.2 236.82 307.877 242.077C313.764 247.123 318.285 253.115 321.438 260.054C324.803 266.992 326.485 275.087 326.485 284.338C326.485 290.646 325.538 296.954 323.646 303.261C321.754 309.359 318.6 315.036 314.185 320.292C309.769 325.549 303.987 330.069 296.838 333.854C289.9 337.638 281.279 340.372 270.977 342.054V380.531H231.238V343Z" fill="#2E948A"/>
</svg>
